<?xml version="1.0" encoding="utf-8"?>
<!-- Generator: Adobe Illustrator 24.0.2, SVG Export Plug-In . SVG Version: 6.00 Build 0)  -->
<svg version="1.1" id="Capa_1" xmlns="http://www.w3.org/2000/svg" xmlns:xlink="http://www.w3.org/1999/xlink" x="0px" y="0px"
	 viewBox="0 0 336 98" style="enable-background:new 0 0 336 98;" xml:space="preserve">
<path d="M156.97,28.23c-2.73,0-5.76,0-8.55,0c-1.14-3.63-2.25-7.18-3.36-10.73c-0.15,0.03-0.31,0.07-0.46,0.1
	c0.55,3.47-0.99,7.14,1.27,10.56c-2.84,0-5.64,0-8.84,0c3.1-2.65,2.23-6.08,2.12-9.25c-0.11-3.17,1.24-6.64-1.8-9.52
	c3.43,0,6.57,0,9.42,0c1.25,3.5,2.47,6.9,3.72,10.42c0-3.3,0-6.41,0-9.63c1.96,0,4.3,0,6.35,0
	C156.08,16.14,155.93,22.07,156.97,28.23z M95.84,14.53c1.43-1.04,2.91-2.1,4.38-3.17c0.21,0.19,0.42,0.37,0.63,0.56
	c-1.07,2.8-1.99,5.67-3.26,8.39c-1.26,2.71-2.87,5.25-4.37,7.92c3.04,0,6.01,0,8.99,0c-0.96-3.02-0.95-3.56,0.04-5.06
	c0.7,1.62,1.39,3.19,2.16,4.98c0.93-1.86,1.74-3.46,2.54-5.06c0.21,0.07,0.42,0.13,0.62,0.2c-0.23,1.64-0.45,3.29-0.67,4.85
	c3.06,0,6.17,0,9.47,0c-3.71-5.13-6.66-10.37-8.03-16.35c0.17-0.15,0.33-0.3,0.5-0.46c1.43,1.08,2.87,2.16,4.22,3.18
	c0-1.87,0-3.88,0-5.9c-5.81,0-11.49,0-17.25,0C95.84,10.73,95.84,12.74,95.84,14.53z M104.42,14.85c2.35,4.25,2.37,5.45,0.1,7.75
	C102.06,20.16,102.05,19.66,104.42,14.85z M240.35,14.53c1.43-1.04,2.91-2.1,4.38-3.17c0.21,0.19,0.42,0.37,0.63,0.56
	c-1.07,2.8-1.99,5.67-3.26,8.39c-1.26,2.71-2.87,5.25-4.37,7.92c3.04,0,6.01,0,8.99,0c-0.96-3.02-0.95-3.56,0.04-5.06
	c0.7,1.62,1.39,3.19,2.16,4.98c0.93-1.86,1.74-3.46,2.54-5.06c0.21,0.07,0.42,0.13,0.62,0.2c-0.23,1.64-0.45,3.29-0.67,4.85
	c3.06,0,6.17,0,9.47,0c-3.71-5.13-6.66-10.37-8.03-16.35c0.17-0.15,0.33-0.3,0.5-0.46c1.43,1.08,2.87,2.16,4.22,3.18
	c0-1.87,0-3.88,0-5.9c-5.81,0-11.49,0-17.25,0C240.35,10.73,240.35,12.74,240.35,14.53z M248.93,14.85c2.35,4.25,2.37,5.45,0.1,7.75
	C246.56,20.16,246.56,19.66,248.93,14.85z M129.5,27.08c2.06,1.63,4.99,1.46,6.63-0.07c1.42-1.33,1.62-3.04,0.82-4.6
	c-0.45-0.87-1.63-1.69-2.62-1.9c-1.68-0.36-2.25,1.11-2.74,2.41c-0.04,0.1-0.2,0.14-0.71,0.49c-0.76-0.64-1.62-1.37-2.83-2.4
	c0.98-0.24,1.29-0.32,1.6-0.39c3.28-0.73,4.78-2.32,4.81-5.11c0.03-2.85-1.92-5.88-4.64-6.12c-3.99-0.35-8.03-0.09-11.57-0.09
	c2.14,6.36,2.43,12.55-0.27,18.77c2.56,0,5.36,0,7.95,0c-0.3-1.83-0.58-3.6-0.9-5.56C126.67,24.23,127.93,25.85,129.5,27.08z
	 M125.22,12.82c1.42-0.35,2.64,0.02,3.34,1.19c0.34,0.57,0.31,1.65-0.01,2.25c-0.65,1.19-1.8,1.73-3.32,1.24
	C125.22,15.95,125.22,14.44,125.22,12.82z M220.18,27.08c2.06,1.63,4.99,1.46,6.63-0.07c1.42-1.33,1.62-3.04,0.82-4.6
	c-0.45-0.87-1.63-1.69-2.62-1.9c-1.68-0.36-2.25,1.11-2.74,2.41c-0.04,0.1-0.2,0.14-0.71,0.49c-0.76-0.64-1.62-1.37-2.83-2.4
	c0.98-0.24,1.29-0.32,1.6-0.39c3.28-0.73,4.78-2.32,4.81-5.11c0.03-2.85-1.92-5.88-4.64-6.12c-3.99-0.35-8.03-0.09-11.57-0.09
	c2.14,6.36,2.43,12.55-0.27,18.77c2.56,0,5.36,0,7.95,0c-0.3-1.83-0.58-3.6-0.9-5.56C217.36,24.23,218.62,25.85,220.18,27.08z
	 M215.91,12.82c1.42-0.35,2.64,0.02,3.34,1.19c0.34,0.57,0.31,1.65-0.01,2.25c-0.65,1.19-1.8,1.73-3.32,1.24
	C215.91,15.95,215.91,14.44,215.91,12.82z M189.8,8.68c0.39,1.84,0.94,3.62,1.1,5.45c0.19,2.25-0.01,4.52,0.06,6.78
	c0.08,2.61,0.1,5.17-2.28,7.32c6.08,0,11.74,0,17.46,0c0-2.31,0-4.54,0-7.27c-2.4,3.97-5.65,4.36-9.28,3.68c0-1.4,0-2.67,0-4.45
	c1.66,0.5,3.1,0.93,4.46,1.34c0-2.02,0-4.11,0-6.43c-1.27,1.49-2.55,2.44-4.41,2.06c0-1.51,0-2.88,0-4.23
	c3.36-0.42,6.45-0.33,8.92,2.96c0-2.78,0-4.95,0-7.2C200.14,8.68,194.69,8.68,189.8,8.68z M85.3,7.2c-1.46-0.1-3-0.46-4.38-0.14
	c-5.29,1.21-8.07,6.82-6.5,12.74c2.02,7.62,11.83,11.1,17.46,6.1c-0.65-1.74-1.31-3.52-2-5.37c-2.51,2.56-5.56,2.87-7.69,0.9
	c-2.03-1.87-2.17-5.33-0.16-7.51c0.56-0.61,1.59-1.31,2.28-1.2c1.57,0.26,3.05,1,4.67,1.57c-0.05,0.11,0.08-0.11,0.17-0.35
	c0.77-2.18,1.53-4.36,2.2-6.28C89.22,7.5,87.26,7.33,85.3,7.2z M181.55,7.2c-1.46-0.1-3-0.46-4.38-0.14
	c-5.29,1.21-8.07,6.82-6.5,12.74c2.02,7.62,11.83,11.1,17.46,6.1c-0.65-1.74-1.31-3.52-2-5.37c-2.51,2.56-5.56,2.87-7.69,0.9
	c-2.03-1.87-2.17-5.33-0.16-7.51c0.56-0.61,1.59-1.31,2.28-1.2c1.57,0.26,3.05,1,4.67,1.57c-0.05,0.11,0.08-0.11,0.17-0.35
	c0.77-2.18,1.53-4.36,2.2-6.28C185.47,7.5,183.51,7.33,181.55,7.2z M159.81,28.23c3.02,0,6,0,8.69,0c-1.9-4.28-1.79-8.43,0.29-12.58
	c-2.95,0-5.91,0-8.88,0C162.24,19.94,162.35,24.13,159.81,28.23z M160.34,10.99c-0.07,2.19,1.88,4.15,4.18,4.19
	c2.05,0.04,3.89-1.8,3.96-3.94c0.07-2.18-1.89-4.15-4.18-4.19C162.26,7.01,160.41,8.85,160.34,10.99z M227.9,28.23
	c3.02,0,6,0,8.69,0c-1.9-4.28-1.79-8.43,0.29-12.58c-2.95,0-5.91,0-8.88,0C230.33,19.94,230.43,24.13,227.9,28.23z M228.43,10.99
	c-0.07,2.19,1.88,4.15,4.18,4.19c2.05,0.04,3.89-1.8,3.96-3.94c0.07-2.18-1.89-4.15-4.18-4.19C230.34,7.01,228.49,8.85,228.43,10.99
	z M280.07,40.81c-5.26,0-11.28,0-16.32,0c0,8.28,0,16.27,0,24.73c-3.23-9.03-6.35-17.78-9.56-26.76c-7.32,0-15.37,0-24.18,0
	c7.79,7.39,4.34,16.31,4.62,24.45c0.27,8.14,2.51,16.95-5.45,23.76c8.21,0,15.41,0,22.69,0c-5.8-8.78-1.86-18.21-3.27-27.11
	c0.4-0.09,0.79-0.18,1.19-0.27c2.85,9.11,5.7,18.22,8.62,27.54c7.16,0,14.94,0,21.94,0C277.68,71.33,278.06,56.1,280.07,40.81z
	 M328.35,63.78c0.1-14.09-9.64-24.32-23.23-24.41c-14.63-0.09-24.58,9.35-24.68,23.43c-0.1,14.09,9.6,24.27,23.21,24.36
	C318.3,87.26,328.25,77.85,328.35,63.78z M306.07,75.25c-5.19-0.13-9.77-5.18-9.65-10.63c0.11-4.98,5.16-9.52,10.37-9.31
	c5.23,0.21,9.75,5.24,9.62,10.71C316.29,71.11,311.5,75.39,306.07,75.25z M185.14,36.96c0.99,4.72,2.42,9.31,2.82,13.99
	c0.49,5.77-0.02,11.61,0.15,17.42c0.21,6.69,0.26,13.26-5.84,18.8c15.6,0,30.15,0,44.84,0c0-5.93,0-11.67,0-18.68
	c-6.16,10.18-14.52,11.2-23.82,9.44c0-3.58,0-6.86,0-11.44c4.26,1.28,7.95,2.39,11.45,3.44c0-5.19,0-10.55,0-16.5
	c-3.27,3.83-6.55,6.27-11.32,5.3c0-3.87,0-7.41,0-10.87c8.63-1.07,16.55-0.86,22.91,7.59c0-7.14,0-12.7,0-18.49
	C211.71,36.96,197.69,36.96,185.14,36.96z M69.51,63.65c-5.94,7.9-11.71,15.57-17.67,23.51c7.62,0,14.75,0,21.94,0
	c-3.72-6.74-3.3-8.14,4.32-14.53c3.57,4.26,8.22,8.16,3.11,14.18c7.56,0,14.7,0,21.81,0c-5.05-6.59-9.78-12.98-14.76-19.16
	c-2.28-2.83-2.67-4.99-0.36-8.21c4.83-6.77,9.1-13.93,13.52-20.79c-6.44,0-13.21,0-20.34,0c5.78,7.16-1.62,11.13-3.52,16.52
	c-1.92-5.38-9.11-9.45-3.45-16.49c-7.21,0-14.12,0-20.69,0C58.83,47.07,64.09,55.24,69.51,63.65z M138.05,52.2
	c-0.09,5.47-0.13,10.94,0.01,16.41c0.17,6.64,0.64,13.3-6.48,18.56c17.07,0,32.73,0,48.51,0c0-6.81,0-13.38,0-20.55
	c-7.57,10.76-10.04,10.81-27.1,9.16c0-8.73-0.21-17.5,0.09-26.25c0.14-4.24,1.22-8.46,1.87-12.65c-6.38,0-13.75,0-22.6,0
	C138.61,41.21,138.14,46.73,138.05,52.2z M106.21,87.16c7.76,0,15.41,0,22.31,0c-4.87-11-4.58-21.64,0.76-32.31
	c-7.59,0-15.16,0-22.8,0C112.44,65.86,112.72,76.63,106.21,87.16z M107.56,42.89c-0.18,5.62,4.84,10.65,10.74,10.76
	c5.25,0.1,10-4.62,10.18-10.12c0.18-5.61-4.85-10.65-10.74-10.76C112.49,32.66,107.74,37.38,107.56,42.89z M45.84,87.16
	c-12.26-10.14-6.66-22.72-8.06-33.72c7.45-3.54,10.33,3.39,15.64,6.04c-0.88-7.86-1.68-15-2.33-20.82
	c-14.11,0.57-27.43,1.11-40.87,1.65c-1.18,6.1-2.34,12.08-3.68,19c6.1-3.27,10.2-8.75,17.4-5.85c-1.26,11.33,4.06,23.93-8.4,33.72
	C26.32,87.16,35.32,87.16,45.84,87.16z"/>
</svg>
